<svg width="176" height="221" viewBox="0 0 176 221" fill="none" xmlns="http://www.w3.org/2000/svg">
<path d="M-45.9712 306.668C-103.542 306.668 -150.213 259.931 -150.213 202.278C-150.213 144.624 -103.542 97.8874 -45.9712 97.8874C11.5994 97.8874 58.2707 144.624 58.2707 202.278C58.2707 259.931 11.5994 306.668 -45.9712 306.668Z" stroke="#E5E5E5" stroke-opacity="0.24"/>
<path d="M-34.9454 310.807C-99.3663 310.807 -151.591 258.51 -151.591 193.996C-151.591 129.482 -99.3663 77.1846 -34.9454 77.1846C29.4755 77.1846 81.7002 129.482 81.7002 193.996C81.7002 258.51 29.4755 310.807 -34.9454 310.807Z" stroke="#E5E5E5" stroke-opacity="0.24"/>
<path d="M-25.9874 314.949C-96.4975 314.949 -153.658 257.708 -153.658 187.096C-153.658 116.485 -96.4975 59.2439 -25.9874 59.2439C44.5227 59.2439 101.684 116.485 101.684 187.096C101.684 257.708 44.5227 314.949 -25.9874 314.949Z" stroke="#E5E5E5" stroke-opacity="0.24"/>
<path d="M-12.8955 317.708C-88.7336 317.708 -150.214 256.142 -150.214 180.195C-150.214 104.248 -88.7336 42.6816 -12.8954 42.6816C62.9427 42.6816 124.423 104.248 124.423 180.195C124.423 256.142 62.9427 317.708 -12.8955 317.708Z" stroke="#E5E5E5" stroke-opacity="0.24"/>
<path d="M-0.146436 320.469C-81.1223 320.469 -146.767 254.732 -146.767 173.64C-146.767 92.5476 -81.1223 26.8105 -0.146423 26.8105C80.8295 26.8105 146.475 92.5476 146.475 173.64C146.475 254.732 80.8295 320.469 -0.146436 320.469Z" stroke="#E5E5E5" stroke-opacity="0.24"/>
<path d="M14.3241 323.92C-74.6439 323.92 -146.768 251.695 -146.768 162.599C-146.768 73.5034 -74.6439 1.27831 14.3241 1.27831C103.292 1.27832 175.416 73.5034 175.416 162.599C175.416 251.695 103.292 323.92 14.3241 323.92Z" stroke="#E5E5E5" stroke-opacity="0.24"/>
</svg>
